<svg fill="#000000" xmlns="http://www.w3.org/2000/svg"  viewBox="0 0 24 24" width="96px" height="96px"><path d="M 5 2 C 3.3545455 2 2 3.3545455 2 5 L 2 19 C 2 20.645455 3.3545455 22 5 22 L 19 22 C 20.645455 22 22 20.645455 22 19 L 22 11 L 20 11 L 20 19 C 20 19.554545 19.554545 20 19 20 L 5 20 C 4.4454545 20 4 19.554545 4 19 L 4 5 C 4 4.4454545 4.4454545 4 5 4 L 14 4 L 14 2 L 5 2 z M 20.472656 3.9140625 L 11.179688 13.765625 L 7.5078125 10.09375 L 6.09375 11.507812 L 11.220703 16.634766 L 21.927734 5.2871094 L 20.472656 3.9140625 z"/></svg>